<?xml version="1.0" encoding="UTF-8"?><svg id="Layer_2" xmlns="http://www.w3.org/2000/svg" viewBox="0 0 496.43 133.78"><g id="Quatro_-_Typo_Logo"><g id="Text_Logo"><g id="Q"><path d="M65.02,0h0V65.02H0C0,29.13,29.14,0,65.02,0Z" fill="#69bc45"/><path d="M68.77,0h0C104.65,0,133.78,29.13,133.78,65.02H68.77V0h0Z" fill="#f6921e"/><path d="M0,68.77H65.02v65.02h0C29.13,133.78,0,104.65,0,68.77H0Z" fill="#fff100"/><path d="M68.77,68.77h65.02c0,35.88-29.13,65.02-65.02,65.02h0V68.77h0Z" transform="translate(202.55 0) rotate(90)" fill="#ec1c24"/></g><g id="U"><path d="M141.28,68.77h30.63v65.02h0c-16.91,0-30.63-13.73-30.63-30.63v-34.38h0Z" fill="#69bc45"/><path d="M175.66,68.77h30.63v34.38c0,16.91-13.73,30.63-30.63,30.63h0V68.77h0Z" fill="#69bc45"/></g><g id="A"><path d="M244.43,68.64h0v65.02h-30.63v-34.38c0-16.91,13.73-30.63,30.63-30.63Z" fill="#69bc45"/><rect x="248.18" y="68.64" width="30.63" height="65.02" fill="#69bc45"/></g><g id="T"><path d="M351.33,0C333.37,0,318.82,14.55,318.82,32.51h0c-17.95,0-32.51,14.55-32.51,32.51h0s32.51,0,32.51,0h0c17.95,0,32.51-14.55,32.51-32.51V0h0Z" fill="#69bc45"/><path d="M351.33,68.77c-17.95,0-32.51,14.55-32.51,32.51h0v32.51c17.95,0,32.51-14.55,32.51-32.51h0v-32.51h0Z" fill="#69bc45"/></g><path id="R" d="M391.33,68.85v-.09c-17.95,0-32.51,14.55-32.51,32.51h0v32.51c17.95,0,32.51-14.55,32.51-32.51h0v-1.84h2.05c16.84,0,30.49-13.65,30.49-30.49v-.09h-32.55Z" fill="#69bc45"/><g id="O"><path d="M431.41,103.19c.99,16.45,14.17,29.6,30.63,30.54v-30.54h-30.63Z" fill="#69bc45"/><path d="M462.04,99.44v-30.74c-16.53,.94-29.76,14.2-30.65,30.74h30.65Z" fill="#69bc45"/><path d="M496.42,103.17c-.99,16.45-14.17,29.6-30.63,30.54v-30.54h30.63Z" fill="#69bc45"/><path d="M465.79,99.42v-30.74c16.53,.94,29.76,14.2,30.65,30.74h-30.65Z" fill="#69bc45"/></g></g></g></svg>